<?xml version="1.0" standalone="no"?>
<!DOCTYPE svg PUBLIC "-//W3C//DTD SVG 20010904//EN"
 "http://www.w3.org/TR/2001/REC-SVG-20010904/DTD/svg10.dtd">
<svg version="1.0" xmlns="http://www.w3.org/2000/svg"
 width="400.000000pt" height="400.000000pt" viewBox="0 0 400.000000 400.000000"
 preserveAspectRatio="xMidYMid meet">
<metadata>
Created by potrace 1.14, written by Peter Selinger 2001-2017
</metadata>
<g transform="translate(0.000000,400.000000) scale(0.100000,-0.100000)"
fill="#000000" stroke="none">
<path d="M971 3822 c-100 -34 -174 -149 -167 -257 3 -39 42 -255 72 -400 3
-11 7 -39 11 -63 6 -41 5 -43 -18 -38 -125 27 -367 66 -410 66 -71 0 -120 -21
-176 -75 -61 -59 -89 -134 -78 -212 9 -71 9 -70 249 -403 115 -158 113 -149
29 -170 -65 -16 -132 -68 -166 -129 -25 -44 -30 -65 -31 -120 -1 -95 22 -135
171 -290 71 -73 129 -137 131 -141 2 -4 -42 -40 -98 -79 -55 -40 -111 -89
-125 -109 -48 -74 -55 -184 -15 -261 35 -70 96 -113 214 -151 58 -18 106 -37
106 -41 0 -4 -16 -41 -36 -83 -33 -70 -36 -83 -32 -139 6 -72 32 -129 80 -173
39 -38 108 -74 140 -74 19 0 20 -2 8 -10 -9 -6 -10 -10 -3 -10 6 0 14 4 17 9
9 14 54 19 65 8 8 -8 11 -7 11 2 0 9 8 11 25 7 16 -4 25 -2 25 5 0 6 6 9 13 6
8 -3 45 1 83 9 37 8 74 12 80 10 7 -3 15 -2 18 2 17 17 43 9 59 -18 57 -96
266 -273 386 -326 22 -10 41 -21 41 -26 0 -4 7 -5 15 -2 8 4 15 2 15 -3 0 -5
10 -9 22 -10 11 -1 24 -6 27 -10 3 -4 21 -9 40 -11 19 -1 40 -7 47 -13 6 -5
16 -9 20 -8 25 4 54 -2 49 -11 -3 -5 -1 -10 4 -10 6 0 11 5 11 10 0 6 5 10 11
10 6 0 8 -9 4 -22 -6 -22 -5 -22 7 -3 7 11 20 19 28 19 8 -1 20 -2 26 -3 6 0
16 -11 23 -24 10 -20 11 -20 6 -1 -4 17 -1 20 17 19 13 -1 31 2 40 6 10 6 19
5 23 -1 4 -7 12 -7 25 0 14 7 19 6 23 -9 5 -21 49 -22 55 0 2 8 0 10 -5 4 -11
-14 -45 -16 -40 -2 7 23 51 18 75 -10 13 -16 21 -23 18 -16 -4 6 -2 14 4 18 5
3 10 11 10 18 0 6 -7 2 -16 -9 -14 -17 -15 -17 -10 -1 3 11 2 16 -4 12 -6 -3
-10 -2 -10 3 0 5 11 12 25 14 14 3 25 1 25 -3 0 -12 37 -11 44 0 4 5 -3 7 -14
4 -11 -3 -20 -3 -20 0 0 5 61 25 95 31 6 1 34 14 63 29 29 15 50 22 47 17 -3
-6 -1 -10 4 -10 6 0 11 6 11 14 0 13 27 31 43 27 4 0 10 6 13 14 4 8 10 15 15
15 4 0 20 11 35 25 15 14 32 25 38 25 6 0 4 -5 -4 -11 -13 -9 -13 -10 0 -6 8
2 14 12 14 21 -1 9 4 16 12 16 8 0 14 6 14 13 1 16 60 74 60 58 0 -7 6 -11 13
-8 6 2 23 0 37 -5 36 -14 151 -18 143 -5 -4 6 4 8 20 5 15 -3 24 -1 21 3 -3 5
7 11 21 15 14 3 25 9 25 13 0 4 12 14 28 21 15 8 35 21 45 29 15 13 17 12 17
-8 0 -12 -4 -19 -10 -16 -6 3 -13 -1 -16 -9 -3 -9 -10 -13 -15 -10 -5 3 -6 -1
-3 -9 3 -9 -2 -13 -17 -13 -21 1 -35 -27 -23 -45 6 -11 34 0 34 13 0 6 -6 6
-14 -2 -12 -9 -15 -8 -13 10 1 15 6 20 20 16 12 -3 22 3 29 19 6 14 15 22 20
19 11 -7 22 22 14 42 -6 15 -8 15 -26 -1 -26 -23 -26 -10 0 22 11 14 20 32 20
39 0 8 5 14 11 14 5 0 7 4 4 10 -3 5 -1 10 4 10 6 0 11 5 11 11 0 5 -4 8 -9 5
-5 -4 -7 3 -4 14 6 21 25 28 20 8 -1 -8 8 -13 23 -13 16 0 24 5 22 14 -2 9 3
11 15 7 9 -4 15 -4 11 -1 -9 10 25 42 39 37 7 -2 10 -9 7 -16 -3 -6 1 -3 10 7
10 13 21 17 37 12 12 -4 19 -3 16 2 -4 5 -1 10 6 10 7 0 19 4 28 7 11 5 18 1
22 -13 4 -16 0 -21 -15 -21 -18 0 -19 2 -7 18 13 15 12 16 -4 3 -21 -17 -9
-35 19 -29 14 2 18 11 16 31 -2 15 1 27 6 27 5 0 25 16 45 35 20 19 41 35 47
35 5 0 9 3 8 8 -4 15 25 87 40 99 18 15 26 49 13 57 -4 3 -7 -6 -5 -19 1 -14
-2 -25 -6 -25 -12 0 -21 16 -13 24 9 9 13 57 4 52 -4 -3 -8 7 -9 20 -1 14 -6
33 -12 44 -7 13 -6 20 3 23 7 4 6 6 -4 6 -9 1 -20 8 -23 17 -3 8 -2 12 4 9 6
-3 10 -1 10 4 0 6 -7 11 -15 11 -8 0 -15 5 -15 10 0 21 -2 25 -16 41 -8 9 -11
19 -7 22 3 4 0 7 -8 7 -8 0 1 9 19 20 27 17 37 18 48 9 12 -10 13 -8 7 7 -6
16 -4 17 9 6 13 -10 17 -10 22 3 3 9 2 13 -4 10 -6 -3 -10 -4 -10 -1 0 9 43
29 64 30 11 1 21 8 23 16 4 13 3 13 -6 0 -8 -11 -11 -12 -11 -2 0 8 9 16 20
19 11 3 18 9 15 13 -3 4 2 11 11 14 8 3 12 10 9 16 -3 6 1 13 9 16 9 3 14 10
11 15 -6 9 20 79 30 79 9 0 1 -34 -10 -43 -6 -5 -4 -7 5 -4 21 5 20 53 -2 49
-12 -2 -15 3 -11 18 3 11 10 20 15 20 5 0 6 -5 2 -12 -5 -7 -3 -8 6 -3 10 6
10 11 -3 20 -9 7 -14 15 -10 18 3 4 1 7 -5 7 -7 0 -11 3 -10 8 3 10 -23 84
-37 104 -6 10 -28 30 -48 46 -20 16 -34 32 -30 36 3 3 -1 6 -11 6 -10 0 -24 6
-31 14 -12 12 -12 15 0 19 8 4 16 -1 18 -11 3 -12 5 -10 6 6 0 13 5 21 10 17
6 -3 15 3 20 12 11 17 11 17 22 0 5 -9 15 -14 21 -11 8 5 9 1 5 -10 -4 -10 -3
-15 3 -11 6 3 10 1 10 -4 0 -6 5 -11 10 -11 6 0 3 11 -6 25 -9 14 -20 22 -25
19 -5 -3 -9 -2 -9 3 0 11 20 40 20 30 0 -5 13 1 29 12 15 11 31 18 35 14 3 -3
6 0 6 7 0 7 3 11 6 7 4 -3 27 13 51 36 25 23 50 41 55 39 5 -1 8 3 7 10 -3 27
1 39 13 32 8 -5 9 -2 5 10 -5 11 2 26 18 42 25 25 25 25 3 18 -19 -6 -21 -4
-11 7 18 22 6 106 -23 161 -10 18 -17 39 -15 47 1 7 -2 10 -8 7 -5 -3 -24 7
-41 23 -18 16 -103 59 -191 97 -98 41 -158 72 -155 79 2 7 0 18 -6 26 -8 11
-9 11 -4 -3 7 -25 -4 -28 -41 -13 -31 13 -32 15 -22 45 7 20 16 29 25 26 8 -3
14 -1 14 4 0 6 -5 10 -11 10 -5 0 -7 5 -4 10 4 6 10 8 15 5 14 -9 23 15 11 29
-9 10 -8 17 2 28 7 7 12 19 9 26 -2 6 2 12 9 12 7 0 9 3 6 7 -4 3 1 12 11 20
9 8 12 12 6 9 -12 -6 19 77 46 124 8 14 13 30 12 37 -5 22 17 23 32 2 15 -22
15 -22 13 -1 0 11 -4 19 -8 16 -10 -6 -19 24 -13 41 4 8 10 12 16 9 5 -3 8 0
7 7 -5 26 24 100 43 110 10 6 16 14 13 20 -9 14 8 11 35 -7 l25 -16 -24 22
c-24 21 -48 22 -43 1 1 -6 -5 -11 -13 -11 -12 0 -13 4 -6 18 6 12 4 35 -6 72
-9 30 -15 66 -15 79 0 18 -2 21 -9 10 -7 -11 -10 -10 -15 6 -7 26 -91 83 -148
100 -50 15 -110 12 -196 -10 -30 -8 -71 -17 -90 -20 -19 -3 -75 -15 -125 -26
-99 -23 -229 -49 -260 -52 -15 -2 -19 5 -21 36 -2 23 2 37 9 37 9 0 9 2 0 8
-7 4 -15 32 -17 62 -3 30 -6 55 -6 55 -8 0 -5 54 4 64 8 11 8 13 -1 7 -9 -5
-13 2 -14 26 0 18 -3 45 -5 61 -3 15 0 27 5 27 5 0 8 -11 7 -25 -2 -13 1 -22
5 -19 15 9 3 47 -16 54 -19 7 -19 7 0 17 10 6 20 18 21 27 1 9 -2 14 -7 10 -5
-3 -7 -9 -4 -14 3 -4 -1 -10 -9 -13 -8 -3 -19 8 -29 28 -15 32 -15 34 1 28 14
-6 15 -5 2 9 -8 9 -17 15 -18 13 -2 -2 -18 10 -35 27 -54 52 -104 71 -182 72
-91 1 -136 -21 -240 -120 -236 -224 -319 -299 -327 -296 -8 2 -192 127 -468
319 -173 120 -203 135 -273 138 -37 2 -80 -4 -106 -13z m2409 -1272 c0 -5 -2
-10 -4 -10 -3 0 -8 5 -11 10 -3 6 -1 10 4 10 6 0 11 -4 11 -10z m-230 -1930
c0 -5 5 -10 11 -10 5 0 8 3 5 8 -2 4 10 8 27 9 l31 1 -27 -15 c-15 -7 -25 -18
-22 -23 4 -6 -3 -10 -15 -10 -12 0 -18 5 -15 10 3 6 -1 13 -9 16 -9 3 -13 10
-10 15 7 12 24 11 24 -1z"/>
<path d="M2628 3653 c7 -3 16 -2 19 1 4 3 -2 6 -13 5 -11 0 -14 -3 -6 -6z"/>
<path d="M2675 3609 c-4 -6 -5 -12 -2 -15 2 -3 7 2 10 11 7 17 1 20 -8 4z"/>
<path d="M2681 3564 c0 -11 3 -14 6 -6 3 7 2 16 -1 19 -3 4 -6 -2 -5 -13z"/>
<path d="M2697 3543 c-10 -10 -8 -41 2 -48 5 -3 13 0 17 6 4 8 3 9 -4 5 -8 -5
-12 1 -12 14 0 13 4 19 12 14 7 -4 8 -3 4 4 -8 14 -10 14 -19 5z"/>
<path d="M2681 3474 c0 -11 3 -14 6 -6 3 7 2 16 -1 19 -3 4 -6 -2 -5 -13z"/>
<path d="M2710 3470 c0 -5 5 -10 11 -10 5 0 7 5 4 10 -3 6 -8 10 -11 10 -2 0
-4 -4 -4 -10z"/>
<path d="M2664 3438 c-3 -4 5 -5 17 -3 30 6 36 14 9 12 -12 -1 -24 -5 -26 -9z"/>
<path d="M2711 3431 c-16 -10 -25 -47 -13 -55 4 -3 14 0 22 6 12 8 12 9 -3 4
-22 -7 -20 23 3 41 18 14 11 17 -9 4z"/>
<path d="M2670 3363 c0 -5 5 -15 10 -23 7 -12 9 -10 7 8 -1 19 -17 33 -17 15z"/>
<path d="M2712 3361 c-11 -7 -11 -9 0 -14 9 -3 15 1 15 9 0 8 -1 14 -1 14 -1
0 -7 -4 -14 -9z"/>
<path d="M2695 3320 c-3 -5 -3 -10 2 -10 4 0 1 -5 -7 -11 -10 -7 -11 -9 -2 -7
8 2 13 7 12 12 -1 5 4 13 12 17 9 6 9 9 1 9 -6 0 -15 -4 -18 -10z"/>
<path d="M2715 3290 c-3 -5 -1 -10 4 -10 6 0 11 5 11 10 0 6 -2 10 -4 10 -3 0
-8 -4 -11 -10z"/>
<path d="M2697 3262 c-9 -18 0 -45 16 -48 9 -1 15 2 11 7 -3 5 -9 7 -14 4 -5
-3 -8 4 -7 15 1 12 7 18 14 16 7 -3 14 -2 17 2 3 4 -4 8 -14 9 -11 1 -21 -1
-23 -5z"/>
<path d="M3553 3171 c0 -11 5 -18 9 -15 4 3 5 11 1 19 -7 21 -12 19 -10 -4z"/>
<path d="M3575 3151 c-6 -11 13 -26 22 -17 4 3 1 6 -6 6 -7 0 -9 5 -6 10 3 6
4 10 1 10 -3 0 -7 -4 -11 -9z"/>
<path d="M3595 3110 c3 -5 8 -10 11 -10 2 0 4 5 4 10 0 6 -5 10 -11 10 -5 0
-7 -4 -4 -10z"/>
<path d="M3570 3103 c5 -2 8 -9 4 -14 -8 -14 26 -23 38 -11 8 8 5 9 -11 5 -15
-4 -21 -1 -19 7 2 7 -3 14 -10 16 -7 1 -8 0 -2 -3z"/>
<path d="M3615 3060 c-3 -5 -1 -10 4 -10 6 0 11 5 11 10 0 6 -2 10 -4 10 -3 0
-8 -4 -11 -10z"/>
<path d="M3580 3000 c-18 -12 -2 -12 25 0 13 6 15 9 5 9 -8 0 -22 -4 -30 -9z"/>
<path d="M3630 2991 c0 -7 -5 -9 -12 -5 -7 5 -8 3 -3 -5 5 -9 10 -10 18 -2 6
6 8 14 4 18 -4 3 -7 1 -7 -6z"/>
<path d="M3556 2963 c-6 -14 -5 -15 5 -6 7 7 10 15 7 18 -3 3 -9 -2 -12 -12z"/>
<path d="M3582 2960 c-15 -24 0 -35 28 -20 11 6 20 13 20 16 0 2 -9 0 -19 -6
-28 -14 -39 -12 -18 4 10 8 14 16 10 19 -5 3 -14 -3 -21 -13z"/>
<path d="M3550 2920 c-13 -8 -12 -10 3 -10 9 0 17 5 17 10 0 12 -1 12 -20 0z"/>
<path d="M3579 2908 c-6 -22 -5 -38 3 -38 6 0 7 7 4 16 -4 12 -2 15 9 10 8 -3
15 -1 15 4 0 8 -28 15 -31 8z"/>
<path d="M3535 2879 c-9 -14 0 -22 28 -26 17 -2 19 -1 7 6 -8 5 -18 7 -22 5
-4 -3 -8 -1 -8 5 0 5 6 12 13 14 9 4 9 6 0 6 -6 1 -15 -4 -18 -10z"/>
<path d="M3550 2833 c8 -3 19 -11 23 -17 6 -7 7 -6 4 4 -2 8 -12 16 -23 17
-13 2 -15 1 -4 -4z"/>
<path d="M3495 2821 c4 -8 2 -17 -6 -22 -9 -6 -10 -9 -2 -9 19 0 27 21 13 33
-10 9 -11 9 -5 -2z"/>
<path d="M3540 2800 c0 -5 5 -10 10 -10 6 0 10 5 10 10 0 6 -4 10 -10 10 -5 0
-10 -4 -10 -10z"/>
<path d="M3510 2780 c0 -5 5 -10 10 -10 6 0 10 5 10 10 0 6 -4 10 -10 10 -5 0
-10 -4 -10 -10z"/>
<path d="M3478 2763 c7 -3 16 -2 19 1 4 3 -2 6 -13 5 -11 0 -14 -3 -6 -6z"/>
<path d="M3535 2759 c-11 -16 -1 -19 13 -3 7 8 8 14 3 14 -5 0 -13 -5 -16 -11z"/>
<path d="M3459 2745 c-8 -35 -1 -50 21 -50 34 0 36 46 3 51 -13 2 -23 2 -24
-1z m41 -25 c0 -9 -8 -16 -18 -17 -11 -1 -18 5 -18 17 0 12 7 18 18 17 10 -1
18 -8 18 -17z"/>
<path d="M3470 2676 c0 -2 9 -6 20 -9 11 -3 18 -1 14 4 -5 9 -34 13 -34 5z"/>
<path d="M3445 2663 c19 -16 14 -42 -8 -40 -16 2 -21 -4 -22 -23 0 -15 5 -24
13 -22 6 1 12 -7 12 -18 0 -11 -6 -19 -12 -17 -19 3 -16 -46 2 -50 9 -3 11 -1
5 4 -5 4 -11 16 -13 25 -2 12 3 16 17 13 16 -3 18 0 11 23 -4 15 -12 26 -18
25 -6 -2 -10 6 -9 17 1 13 8 18 21 17 15 -1 20 4 20 22 0 14 -6 26 -14 29 -9
2 -11 0 -5 -5z"/>
<path d="M3480 2640 c0 -5 5 -10 10 -10 6 0 10 5 10 10 0 6 -4 10 -10 10 -5 0
-10 -4 -10 -10z"/>
<path d="M3460 2600 c-8 -5 -10 -10 -5 -10 6 0 17 5 25 10 8 5 11 10 5 10 -5
0 -17 -5 -25 -10z"/>
<path d="M3390 2585 c0 -5 5 -17 10 -25 5 -8 10 -10 10 -5 0 6 -5 17 -10 25
-5 8 -10 11 -10 5z"/>
<path d="M3391 2514 c0 -11 3 -14 6 -6 3 7 2 16 -1 19 -3 4 -6 -2 -5 -13z"/>
<path d="M3370 2480 c0 -5 5 -10 10 -10 6 0 10 5 10 10 0 6 -4 10 -10 10 -5 0
-10 -4 -10 -10z"/>
<path d="M3355 2450 c-3 -5 -1 -10 4 -10 6 0 11 5 11 10 0 6 -2 10 -4 10 -3 0
-8 -4 -11 -10z"/>
<path d="M3810 2200 c0 -5 5 -10 11 -10 5 0 7 5 4 10 -3 6 -8 10 -11 10 -2 0
-4 -4 -4 -10z"/>
<path d="M3830 2175 c0 -5 5 -17 10 -25 5 -8 10 -10 10 -5 0 6 -5 17 -10 25
-5 8 -10 11 -10 5z"/>
<path d="M3845 2120 c-3 -6 1 -7 9 -4 18 7 21 14 7 14 -6 0 -13 -4 -16 -10z"/>
<path d="M3857 2103 c-8 -8 12 -33 26 -33 6 0 2 7 -9 16 -16 13 -16 15 -1 10
9 -3 17 -1 17 4 0 11 -23 13 -33 3z"/>
<path d="M3861 2050 c14 -31 19 -36 19 -24 0 6 -7 19 -16 30 -14 18 -14 18 -3
-6z"/>
<path d="M3896 2062 c-8 -14 0 -46 13 -48 6 -1 7 0 2 2 -5 3 -7 16 -5 30 4 24
0 31 -10 16z"/>
<path d="M3855 1981 c-3 -6 -3 -11 2 -12 4 0 -1 -5 -12 -10 l-20 -9 20 3 c11
2 19 9 18 15 -2 7 6 12 17 12 11 0 19 -5 18 -11 -2 -6 4 -14 12 -16 12 -4 12
-3 2 5 -8 5 -12 13 -10 18 4 13 -39 17 -47 5z"/>
<path d="M3870 1940 c0 -5 5 -10 10 -10 6 0 10 5 10 10 0 6 -4 10 -10 10 -5 0
-10 -4 -10 -10z"/>
<path d="M3830 1919 c-12 -8 -10 -9 9 -4 15 5 21 3 17 -3 -7 -12 32 -37 42
-28 3 3 0 6 -7 6 -7 0 -9 4 -6 10 3 6 -1 7 -10 4 -10 -4 -15 -2 -13 6 4 17
-14 22 -32 9z"/>
<path d="M3819 1883 c-1 -5 -1 -11 0 -15 0 -5 -8 -8 -20 -8 -13 0 -18 4 -13
12 5 7 3 8 -5 3 -18 -10 2 -28 25 -23 11 2 18 10 16 17 -2 10 5 12 25 7 21 -5
24 -4 13 4 -18 12 -40 13 -41 3z"/>
<path d="M3837 1853 c-11 -11 -8 -20 7 -20 8 0 12 6 9 14 -6 15 -7 15 -16 6z"/>
<path d="M3755 1840 c3 -5 8 -10 11 -10 2 0 4 5 4 10 0 6 -5 10 -11 10 -5 0
-7 -4 -4 -10z"/>
<path d="M3730 1820 c-9 -6 -10 -10 -3 -10 6 0 15 5 18 10 8 12 4 12 -15 0z"/>
<path d="M3779 1823 c-1 -5 -1 -12 0 -17 1 -5 -6 -5 -16 -2 -9 4 -14 4 -10 0
4 -4 0 -12 -8 -18 -11 -8 -12 -15 -4 -26 9 -13 10 -13 6 1 -4 11 3 20 19 28
14 6 22 16 19 21 -3 6 3 10 14 10 15 0 19 -5 15 -17 -5 -15 -4 -15 4 -3 6 8 8
18 6 22 -6 10 -44 11 -45 1z"/>
<path d="M3708 1793 c7 -3 16 -2 19 1 4 3 -2 6 -13 5 -11 0 -14 -3 -6 -6z"/>
<path d="M3670 1780 c0 -5 5 -10 10 -10 6 0 10 5 10 10 0 6 -4 10 -10 10 -5 0
-10 -4 -10 -10z"/>
<path d="M3636 1762 c-2 -4 0 -14 6 -22 8 -12 9 -11 4 3 -5 15 -2 17 17 12 17
-5 19 -4 7 4 -18 13 -27 14 -34 3z"/>
<path d="M3700 1766 c0 -2 7 -7 16 -10 8 -3 12 -2 9 4 -6 10 -25 14 -25 6z"/>
<path d="M3695 1740 c3 -5 8 -10 11 -10 2 0 4 5 4 10 0 6 -5 10 -11 10 -5 0
-7 -4 -4 -10z"/>
<path d="M3559 1713 c-13 -17 -13 -17 6 -3 11 8 22 16 24 17 2 2 0 3 -6 3 -6
0 -17 -8 -24 -17z"/>
<path d="M3668 1723 c7 -3 16 -2 19 1 4 3 -2 6 -13 5 -11 0 -14 -3 -6 -6z"/>
<path d="M3579 1708 c-6 -22 -5 -38 3 -38 6 0 7 7 4 16 -5 12 -1 14 17 9 17
-5 19 -4 7 4 -14 10 -29 14 -31 9z"/>
<path d="M3677 1563 c-10 -9 -9 -23 1 -23 5 0 9 7 9 15 0 17 -1 18 -10 8z"/>
<path d="M3688 1522 c8 -5 13 -13 13 -18 -1 -5 8 -10 19 -10 11 -1 17 2 14 7
-2 4 -11 6 -20 2 -9 -3 -14 0 -12 7 2 7 -4 15 -12 17 -12 4 -12 3 -2 -5z"/>
<path d="M3718 1473 c7 -3 16 -2 19 1 4 3 -2 6 -13 5 -11 0 -14 -3 -6 -6z"/>
<path d="M3729 1448 c-8 -7 -12 -12 -10 -11 2 2 9 -5 16 -14 9 -13 14 -13 20
-3 6 9 4 11 -5 5 -10 -6 -12 -3 -8 13 7 26 6 26 -13 10z"/>
<path d="M3721 1394 c0 -11 3 -14 6 -6 3 7 2 16 -1 19 -3 4 -6 -2 -5 -13z"/>
<path d="M3730 1366 c0 -2 7 -7 16 -10 8 -3 12 -2 9 4 -6 10 -25 14 -25 6z"/>
<path d="M3699 1343 c-1 -5 -1 -11 0 -15 0 -5 -6 -8 -14 -8 -8 0 -15 -5 -15
-10 0 -7 7 -7 20 0 11 6 18 15 15 20 -3 5 5 11 17 13 l23 4 -22 2 c-13 0 -24
-2 -24 -6z"/>
<path d="M3710 1300 c0 -5 5 -10 10 -10 6 0 10 5 10 10 0 6 -4 10 -10 10 -5 0
-10 -4 -10 -10z"/>
<path d="M3645 1280 c-3 -6 1 -7 9 -4 18 7 21 14 7 14 -6 0 -13 -4 -16 -10z"/>
<path d="M3659 1268 c-13 -44 -3 -64 21 -46 12 8 12 9 -3 4 -13 -4 -17 -1 -15
12 2 9 8 20 13 24 6 5 5 8 -2 8 -7 0 -13 -1 -14 -2z"/>
<path d="M3694 1262 c3 -5 0 -13 -6 -15 -9 -4 -10 -6 -1 -6 17 -1 25 16 12 25
-7 4 -9 3 -5 -4z"/>
<path d="M3631 1244 c0 -11 3 -14 6 -6 3 7 2 16 -1 19 -3 4 -6 -2 -5 -13z"/>
<path d="M3600 1219 c-12 -9 -12 -10 3 -5 15 5 17 2 12 -17 -5 -20 -5 -20 6
-4 14 23 0 40 -21 26z"/>
<path d="M3554 1190 c1 -7 6 -12 11 -12 6 -1 15 -8 21 -16 9 -12 13 -12 19 -2
5 8 4 11 -2 7 -6 -4 -14 0 -17 9 -3 8 -10 13 -15 10 -5 -4 -12 -1 -14 4 -4 7
-5 6 -3 0z"/>
<path d="M3476 1155 c4 -8 8 -15 10 -15 2 0 4 7 4 15 0 8 -4 15 -10 15 -5 0
-7 -7 -4 -15z"/>
<path d="M3520 1160 c-8 -5 -12 -11 -10 -14 3 -2 14 2 24 10 22 15 10 19 -14
4z"/>
<path d="M3454 1152 c3 -5 0 -13 -6 -15 -9 -4 -10 -6 -1 -6 17 -1 25 16 12 25
-7 4 -9 3 -5 -4z"/>
<path d="M3536 1141 c-4 -5 3 -7 14 -4 23 6 26 13 6 13 -8 0 -17 -4 -20 -9z"/>
<path d="M3490 1120 c0 -5 5 -10 10 -10 6 0 10 5 10 10 0 6 -4 10 -10 10 -5 0
-10 -4 -10 -10z"/>
<path d="M3508 1043 c7 -3 16 -2 19 1 4 3 -2 6 -13 5 -11 0 -14 -3 -6 -6z"/>
<path d="M3520 1015 c-7 -9 -11 -17 -9 -20 3 -2 10 5 17 15 14 24 10 26 -8 5z"/>
<path d="M3535 1000 c-3 -5 -3 -10 2 -10 4 0 1 -5 -7 -11 -12 -8 -12 -10 -1
-7 8 2 15 12 17 21 3 19 -2 22 -11 7z"/>
<path d="M3546 965 c-18 -14 -18 -14 1 -12 11 0 20 7 20 14 0 7 -1 13 -1 13
-1 0 -9 -7 -20 -15z"/>
<path d="M3551 924 c0 -11 3 -14 6 -6 3 7 2 16 -1 19 -3 4 -6 -2 -5 -13z"/>
<path d="M3573 920 c-1 -11 2 -22 6 -24 4 -3 7 4 6 14 -2 27 -10 33 -12 10z"/>
<path d="M3560 880 c0 -5 5 -10 11 -10 5 0 7 5 4 10 -3 6 -8 10 -11 10 -2 0
-4 -4 -4 -10z"/>
<path d="M3558 843 c7 -3 16 -2 19 1 4 3 -2 6 -13 5 -11 0 -14 -3 -6 -6z"/>
<path d="M3539 825 c-7 -29 -1 -50 14 -53 9 -2 17 1 17 7 0 6 -6 8 -13 5 -8
-3 -13 3 -13 16 0 23 27 23 38 0 6 -11 7 -10 5 4 -2 17 -45 35 -48 21z"/>
<path d="M3517 763 c-4 -3 -7 -11 -7 -17 0 -6 5 -5 12 2 6 6 9 14 7 17 -3 3
-9 2 -12 -2z"/>
<path d="M3535 740 c-3 -5 -3 -10 2 -10 4 0 1 -5 -7 -11 -13 -9 -13 -10 0 -6
8 2 14 10 12 17 -2 8 3 10 13 7 8 -4 15 -2 15 3 0 13 -27 13 -35 0z"/>
<path d="M3490 720 c0 -5 5 -10 10 -10 6 0 10 5 10 10 0 6 -4 10 -10 10 -5 0
-10 -4 -10 -10z"/>
<path d="M3450 700 c0 -5 5 -10 11 -10 5 0 7 5 4 10 -3 6 -8 10 -11 10 -2 0
-4 -4 -4 -10z"/>
<path d="M3481 693 c-1 -6 -4 -20 -7 -30 -5 -17 -5 -17 6 0 6 10 9 23 6 30 -3
9 -5 9 -5 0z"/>
<path d="M3510 692 c0 -5 7 -9 15 -9 8 0 12 4 9 9 -3 4 -9 8 -15 8 -5 0 -9 -4
-9 -8z"/>
<path d="M3430 680 c0 -6 7 -10 15 -10 8 0 15 2 15 4 0 2 -7 6 -15 10 -8 3
-15 1 -15 -4z"/>
<path d="M3395 660 c-4 -6 1 -7 12 -3 16 6 16 5 4 -10 -7 -9 -9 -17 -3 -17 12
0 23 26 15 34 -9 9 -21 7 -28 -4z"/>
<path d="M3495 659 c-4 -6 -5 -12 -2 -15 2 -3 7 2 10 11 7 17 1 20 -8 4z"/>
<path d="M3446 635 c4 -8 8 -15 10 -15 2 0 4 7 4 15 0 8 -4 15 -10 15 -5 0 -7
-7 -4 -15z"/>
<path d="M3279 623 c0 -5 -2 -16 -4 -26 -2 -11 -1 -16 3 -13 8 8 14 46 7 46
-3 0 -5 -3 -6 -7z"/>
<path d="M3235 600 c3 -6 1 -10 -6 -10 -7 0 -10 -3 -6 -6 3 -3 13 -2 22 4 16
8 16 9 1 15 -10 4 -15 3 -11 -3z"/>
<path d="M3308 603 c7 -3 16 -2 19 1 4 3 -2 6 -13 5 -11 0 -14 -3 -6 -6z"/>
<path d="M3135 541 c-3 -6 -3 -11 2 -12 4 0 -1 -5 -12 -10 l-20 -9 20 3 c11 2
19 9 18 15 -2 7 6 12 16 12 14 0 18 -5 14 -19 -3 -10 -1 -21 4 -24 5 -3 8 7 7
21 0 19 -7 28 -21 30 -12 2 -24 -2 -28 -7z"/>
<path d="M1175 508 c1 -7 8 -12 15 -10 7 2 10 -3 7 -11 -3 -7 1 -14 8 -14 10
0 11 5 4 19 -6 10 -14 16 -19 13 -4 -3 -11 0 -13 5 -3 6 -4 5 -2 -2z"/>
<path d="M1116 499 c3 -5 10 -7 15 -4 5 4 9 2 9 -4 0 -5 -5 -12 -10 -14 -6 -3
-5 -4 2 -3 19 4 16 29 -5 32 -9 1 -15 -2 -11 -7z"/>
<path d="M3154 497 c5 -15 2 -17 -13 -12 -24 7 -33 -6 -19 -25 8 -12 9 -11 4
3 -5 15 -2 17 13 12 24 -7 33 6 19 25 -8 12 -9 11 -4 -3z"/>
<path d="M1072 484 c-7 -8 -8 -14 -3 -14 10 0 25 19 20 25 -2 1 -10 -3 -17
-11z"/>
<path d="M977 475 c-7 -17 3 -25 29 -21 10 2 20 11 21 22 2 14 1 15 -5 4 -10
-21 -44 -26 -36 -5 3 8 4 15 1 15 -3 0 -7 -7 -10 -15z"/>
<path d="M1156 473 c-6 -14 -5 -15 5 -6 7 7 10 15 7 18 -3 3 -9 -2 -12 -12z"/>
<path d="M855 460 c-4 -7 3 -8 21 -4 21 5 25 4 19 -6 -5 -9 -4 -11 4 -6 6 4 9
12 6 17 -8 12 -42 12 -50 -1z"/>
<path d="M1036 453 c-6 -14 -5 -15 5 -6 7 7 10 15 7 18 -3 3 -9 -2 -12 -12z"/>
<path d="M1090 459 c0 -5 5 -7 10 -4 6 3 10 8 10 11 0 2 -4 4 -10 4 -5 0 -10
-5 -10 -11z"/>
<path d="M916 443 c-6 -14 -5 -15 5 -6 7 7 10 15 7 18 -3 3 -9 -2 -12 -12z"/>
<path d="M947 446 c-4 -10 -1 -13 8 -9 8 3 12 9 9 14 -7 12 -11 11 -17 -5z"/>
<path d="M3140 440 c0 -5 7 -7 15 -4 8 4 15 8 15 10 0 2 -7 4 -15 4 -8 0 -15
-4 -15 -10z"/>
<path d="M3112 410 c-7 -12 -8 -20 -2 -20 5 0 10 5 10 11 0 5 4 7 10 4 6 -3 7
1 4 9 -8 20 -7 20 -22 -4z"/>
<path d="M3077 376 c-3 -8 -2 -18 3 -21 13 -8 20 9 11 24 -6 10 -10 9 -14 -3z"/>
<path d="M2991 364 c0 -11 3 -14 6 -6 3 7 2 16 -1 19 -3 4 -6 -2 -5 -13z"/>
<path d="M2717 359 c7 -7 15 -10 18 -7 3 3 -2 9 -12 12 -14 6 -15 5 -6 -5z"/>
<path d="M2771 353 c-1 -17 11 -22 34 -12 19 9 19 9 -2 5 -12 -2 -24 1 -27 8
-3 8 -5 8 -5 -1z"/>
<path d="M2690 340 c-9 -6 -10 -10 -3 -10 6 0 15 5 18 10 8 12 4 12 -15 0z"/>
<path d="M2753 332 c0 -12 5 -22 9 -22 11 0 10 12 -2 30 -7 12 -9 10 -7 -8z"/>
<path d="M2870 340 c0 -5 5 -10 10 -10 6 0 10 5 10 10 0 6 -4 10 -10 10 -5 0
-10 -4 -10 -10z"/>
<path d="M2936 342 c-3 -4 0 -14 6 -22 8 -12 9 -12 5 2 -4 12 0 16 14 15 12
-1 17 -7 14 -15 -3 -7 0 -10 6 -7 5 4 8 12 6 18 -4 12 -44 20 -51 9z"/>
<path d="M2718 323 c7 -3 16 -2 19 1 4 3 -2 6 -13 5 -11 0 -14 -3 -6 -6z"/>
<path d="M2905 320 c3 -5 8 -10 11 -10 2 0 4 5 4 10 0 6 -5 10 -11 10 -5 0 -7
-4 -4 -10z"/>
<path d="M2699 308 c-13 -44 -3 -64 21 -46 12 8 12 9 -3 4 -13 -4 -17 -1 -15
12 2 9 8 20 13 24 6 5 5 8 -2 8 -7 0 -13 -1 -14 -2z"/>
<path d="M2734 302 c3 -5 0 -13 -6 -15 -9 -4 -10 -6 -1 -6 17 -1 25 16 12 25
-7 4 -9 3 -5 -4z"/>
<path d="M2671 284 c0 -11 3 -14 6 -6 3 7 2 16 -1 19 -3 4 -6 -2 -5 -13z"/>
<path d="M2640 259 c-13 -9 -12 -10 3 -5 10 3 17 0 17 -8 0 -8 6 -16 13 -19 8
-3 14 1 14 9 0 8 -3 12 -5 9 -3 -3 -10 2 -16 10 -8 11 -15 12 -26 4z"/>
<path d="M2592 232 c2 -8 8 -13 13 -12 5 1 13 -7 17 -17 7 -17 8 -17 5 0 -1
10 -6 17 -11 17 -5 -1 -13 4 -18 12 -8 11 -9 11 -6 0z"/>
<path d="M2636 227 c3 -10 9 -15 12 -12 3 3 0 11 -7 18 -10 9 -11 8 -5 -6z"/>
<path d="M2556 199 c2 -4 -1 -9 -8 -11 -6 -2 -12 -15 -14 -29 -1 -13 0 -18 2
-12 3 7 5 15 4 19 -1 4 11 15 26 25 25 16 26 18 7 16 -12 0 -20 -4 -17 -8z"/>
<path d="M2576 182 c-2 -4 0 -14 6 -22 8 -12 9 -11 4 4 -5 15 -2 17 14 13 11
-3 18 -1 14 4 -6 11 -31 12 -38 1z"/>
<path d="M2445 159 c-4 -6 -5 -12 -2 -15 2 -3 7 2 10 11 7 17 1 20 -8 4z"/>
<path d="M2505 160 c3 -5 8 -10 11 -10 2 0 4 5 4 10 0 6 -5 10 -11 10 -5 0 -7
-4 -4 -10z"/>
<path d="M2473 150 c2 -8 10 -14 17 -12 8 2 10 -3 6 -15 -6 -14 -5 -16 5 -5
10 9 10 15 1 24 -7 7 -12 8 -12 3 0 -6 -5 -3 -11 5 -9 13 -10 13 -6 0z"/>
<path d="M2403 138 c-9 -16 -16 -54 -7 -46 3 3 7 14 8 23 1 9 9 21 17 26 9 5
10 9 2 9 -6 0 -15 -6 -20 -12z"/>
<path d="M2450 126 c0 -2 7 -7 16 -10 8 -3 12 -2 9 4 -6 10 -25 14 -25 6z"/>
<path d="M2358 113 c7 -3 16 -2 19 1 4 3 -2 6 -13 5 -11 0 -14 -3 -6 -6z"/>
<path d="M2330 103 c5 -2 7 -9 4 -15 -7 -10 13 -28 31 -28 6 0 3 5 -5 10 -8 5
-15 15 -15 21 0 7 -6 13 -13 15 -7 1 -8 0 -2 -3z"/>
<path d="M2413 97 c-3 -5 -2 -11 1 -14 3 -4 6 -1 6 6 0 7 4 10 8 7 4 -2 14 -1
22 4 11 7 9 9 -8 7 -13 -1 -26 -5 -29 -10z"/>
<path d="M2265 67 c-15 -12 -16 -15 -4 -22 8 -5 11 -5 7 0 -4 4 0 14 10 21 23
18 11 18 -13 1z"/>
<path d="M1935 60 c-3 -5 -1 -10 4 -10 6 0 11 5 11 10 0 6 -2 10 -4 10 -3 0
-8 -4 -11 -10z"/>
<path d="M2056 62 c-2 -4 0 -14 6 -22 8 -12 9 -12 5 2 -3 9 -1 19 6 22 9 3 9
5 0 5 -6 1 -14 -3 -17 -7z"/>
<path d="M2113 51 c0 -11 5 -18 9 -15 4 3 5 11 1 19 -7 21 -12 19 -10 -4z"/>
<path d="M2295 60 c-3 -6 1 -7 9 -4 18 7 21 14 7 14 -6 0 -13 -4 -16 -10z"/>
</g>
</svg>
